<svg width="115" height="58" viewBox="0 0 115 58" fill="none" xmlns="http://www.w3.org/2000/svg">
<path d="M5 56.7967V30.5974H18.9984C22.6168 30.5974 25.2871 31.239 27.0067 32.5249C28.7289 33.8107 29.5887 35.4497 29.5887 37.4473C29.5887 38.7694 29.2199 39.9487 28.4848 40.9852C27.7497 42.0216 26.682 42.8373 25.2845 43.4373C23.887 44.0373 22.1648 44.3361 20.1205 44.3361L20.8686 42.3152C22.9155 42.3152 24.6793 42.6035 26.1651 43.175C27.6483 43.749 28.7965 44.5776 29.6095 45.6634C30.42 46.7492 30.8252 48.0532 30.8252 49.5754C30.8252 51.8457 29.8823 53.6172 27.999 54.8901C26.1158 56.1629 23.3649 56.7993 19.7465 56.7993H5V56.7967ZM13.6837 50.6222H18.9984C19.9725 50.6222 20.7024 50.4482 21.1882 50.0975C21.6739 49.7494 21.9181 49.2377 21.9181 48.5623C21.9181 47.887 21.6739 47.3778 21.1882 47.0272C20.7024 46.6791 19.9725 46.5025 18.9984 46.5025H13.0837V40.6631H17.7983C18.7958 40.6631 19.5257 40.4942 19.9881 40.1566C20.4504 39.8189 20.6816 39.3383 20.6816 38.7149C20.6816 38.0915 20.4504 37.5797 19.9881 37.2551C19.5257 36.9304 18.7958 36.7693 17.7983 36.7693H13.6811V50.617L13.6837 50.6222Z" fill="white"/>
<path d="M33.9321 56.7967V30.5974H42.7639V49.9469H54.5907V56.7967H33.9321Z" fill="white"/>
<path d="M66.7912 57.3941C64.5963 57.3941 62.474 57.1448 60.4297 56.646C58.3829 56.1473 56.6996 55.4979 55.3774 54.7004L58.2218 48.2636C59.4686 48.9883 60.8609 49.5676 62.3961 50.004C63.9313 50.4404 65.4223 50.6586 66.8692 50.6586C67.716 50.6586 68.3862 50.6015 68.8719 50.4898C69.3577 50.3781 69.7135 50.2144 69.9395 50.004C70.1629 49.791 70.2772 49.5364 70.2772 49.2377C70.2772 48.765 70.0148 48.3909 69.4901 48.1156C68.9654 47.8402 68.2745 47.609 67.4121 47.422C66.5523 47.235 65.6093 47.035 64.5859 46.822C63.5624 46.609 62.5338 46.3284 61.4974 45.9803C60.4609 45.6323 59.5128 45.1699 58.653 44.5958C57.7932 44.0218 57.0996 43.2659 56.5749 42.3307C56.0502 41.3956 55.7879 40.2293 55.7879 38.8318C55.7879 37.2109 56.2424 35.7329 57.1542 34.3977C58.0659 33.0626 59.4245 31.9975 61.235 31.1975C63.0429 30.4 65.295 30 67.9913 30C69.7629 30 71.5085 30.187 73.2306 30.5611C74.9529 30.9351 76.4984 31.5092 77.8725 32.2833L75.2152 38.6837C73.9164 38.0343 72.6644 37.5486 71.4539 37.2239C70.2434 36.8992 69.0641 36.7381 67.916 36.7381C67.0666 36.7381 66.3938 36.8135 65.8951 36.9615C65.3963 37.1122 65.0405 37.3122 64.8275 37.559C64.6145 37.8083 64.5106 38.0837 64.5106 38.3824C64.5106 38.8318 64.7729 39.1877 65.2976 39.45C65.8223 39.7124 66.5133 39.9306 67.3757 40.1046C68.2355 40.2786 69.1836 40.4657 70.22 40.6657C71.2539 40.8657 72.2851 41.141 73.3086 41.4891C74.332 41.8398 75.2724 42.2996 76.1347 42.8736C76.9946 43.4477 77.6881 44.1958 78.2128 45.1179C78.7375 46.0401 78.9999 47.1882 78.9999 48.5623C78.9999 50.1599 78.5453 51.6249 77.6336 52.9601C76.7218 54.2952 75.3685 55.368 73.5735 56.1785C71.776 56.9889 69.5187 57.3941 66.799 57.3941H66.7912Z" fill="white"/>
<path d="M49.1116 0.0703735H22.9806L0 23.7378H26.1338L49.1116 0.0703735Z" fill="white"/>
<path d="M80.1116 0H53.9806L31 23.6674H57.1309L80.1116 0Z" fill="white"/>
<path d="M111.597 0H85.6222L62.6416 23.6674H88.7754L83.5885 48L115 15.45L96.7565 15.4471L111.597 0Z" fill="#E84E1C"/>
</svg>
