<svg width="53" height="70" viewBox="0 0 53 70" fill="none" xmlns="http://www.w3.org/2000/svg">
<path d="M30.3971 35.838H23.3113L27.0043 30.9374C27.2563 30.603 27.0083 30.2109 26.4561 30.0593C25.9 29.9078 25.2478 30.0569 24.9957 30.3889L20.5986 36.2253C20.4426 36.4298 20.4745 36.6704 20.6746 36.858C20.8787 37.0481 21.2267 37.1612 21.6028 37.1612H28.6887L24.9957 42.0617C24.7437 42.3961 24.9917 42.7883 25.5439 42.9399C25.6919 42.9808 25.848 43 26 43C26.4201 43 26.8202 42.8557 27.0043 42.6103L31.4014 36.7738C31.5575 36.5694 31.5254 36.3288 31.3254 36.1411C31.1213 35.9511 30.7732 35.838 30.3971 35.838Z" fill="white"/>
<path d="M52.4966 31.4453C52.4966 30.9334 52.0809 30.5158 51.5713 30.5158H42.1195C40.9392 27.8148 39.0884 25.4741 36.7749 23.7128L46.2938 18.6274V20.9815C46.2938 21.4934 46.7096 21.911 47.2192 21.911C47.7288 21.911 48.1446 21.4934 48.1446 20.9815V13.5117C48.1446 12.9998 47.7288 12.5822 47.2192 12.5822H32.0775L30.1127 0.774603C30.039 0.326684 29.6534 0 29.2008 0H23.7959C23.3432 0 22.9577 0.326684 22.8839 0.774603L20.9191 12.5822H5.77745C5.26781 12.5822 4.85205 12.9998 4.85205 13.5117V20.9815C4.85205 21.4934 5.26781 21.911 5.77745 21.911C6.28709 21.911 6.70285 21.4934 6.70285 20.9815V18.6274L16.2217 23.7128C13.9082 25.4741 12.0541 27.8114 10.8772 30.5158H1.4254C0.915757 30.5158 0.5 30.9334 0.5 31.4453V39.7975C0.5 40.3094 0.915757 40.727 1.4254 40.727C1.93504 40.727 2.35079 40.3094 2.35079 39.7975V37.4299L9.94509 41.4612C10.733 44.6774 12.4296 47.5367 14.7397 49.7527L12.8655 61.0315H1.4254C0.915757 61.0315 0.5 61.4491 0.5 61.961V69.0705C0.5 69.5824 0.915757 70 1.4254 70H51.5713C52.0809 70 52.4966 69.5824 52.4966 69.0705V61.961C52.4966 61.4491 52.0809 61.0315 51.5713 61.0315H40.1312L38.2569 49.7527C40.5704 47.5367 42.2636 44.6774 43.0549 41.4612L50.6492 37.4299V39.7975C50.6492 40.3094 51.065 40.727 51.5746 40.727C52.0842 40.727 52.5 40.3094 52.5 39.7975V31.4453H52.4966ZM46.2904 14.4412V16.5225L35.0147 22.5442C34.5587 22.2781 34.0893 22.0322 33.6065 21.81L32.3826 14.4412H46.2904ZM24.5771 1.85904H28.4128L30.1966 12.5855H22.7934L24.5771 1.85904ZM30.5084 14.4412L31.6048 21.0286C29.992 20.5201 28.2754 20.2439 26.4983 20.2439C24.7213 20.2439 23.0046 20.5201 21.3919 21.0286L22.4883 14.4412H30.5084ZM6.70285 16.5259V14.4445H20.6106L19.3868 21.8133C18.904 22.0356 18.4346 22.2814 17.9786 22.5475L6.70285 16.5259ZM2.35079 35.3317V32.3781H10.1899C9.70704 33.961 9.44887 35.6382 9.44887 37.376C9.44887 37.9755 9.47904 38.5682 9.53939 39.1508L2.35079 35.3317ZM50.6459 62.8939V68.1477H2.35079V62.8939H50.6459ZM38.2536 61.0349H14.7397L16.3826 51.1504C19.2158 53.2519 22.7129 54.498 26.4983 54.498C30.2837 54.498 33.7808 53.2519 36.614 51.1504L38.2569 61.0349H38.2536ZM26.4983 52.6389C18.1161 52.6389 11.2997 45.7888 11.2997 37.3726C11.2997 28.9565 18.1195 22.1063 26.4983 22.1063C34.8772 22.1063 41.697 28.9565 41.697 37.3726C41.697 45.7888 34.8772 52.6389 26.4983 52.6389ZM50.6459 35.3317L43.4573 39.1475C43.5176 38.5648 43.5478 37.9721 43.5478 37.3726C43.5478 35.6348 43.2863 33.9577 42.8068 32.3748H50.6459V35.3284V35.3317Z" fill="white"/>
</svg>
