<svg width="55" height="62" viewBox="0 0 55 62" fill="none" xmlns="http://www.w3.org/2000/svg">
<path d="M51.071 0H3.92903C1.76291 0 -0.000488281 1.95836 -0.000488281 4.36395V35.2606C-0.000488281 37.6662 1.76291 39.6246 3.92903 39.6246H51.071C53.2371 39.6246 55.0005 37.6662 55.0005 35.2606V4.36395C55.0005 1.95836 53.2371 0 51.071 0ZM53.3134 35.2572C53.3134 36.6328 52.3066 37.7509 51.0679 37.7509H3.92597C2.68732 37.7509 1.68054 36.6328 1.68054 35.2572V4.36056C1.68054 2.98497 2.68732 1.86688 3.92597 1.86688H51.0679C52.3066 1.86688 53.3134 2.98497 53.3134 4.36056V35.2572Z" fill="white"/>
<path d="M25.2544 21.3691H17.5388C17.0751 21.3691 16.6968 21.7893 16.6968 22.3043V33.702C16.6968 34.217 17.0751 34.6372 17.5388 34.6372H25.2544C25.7182 34.6372 26.0965 34.217 26.0965 33.702V22.3043C26.0965 21.7893 25.7182 21.3691 25.2544 21.3691ZM24.4124 32.7635H18.3809V23.236H24.4124V32.7635Z" fill="white"/>
<path d="M25.2544 4.98389H17.5388C17.0751 4.98389 16.6968 5.404 16.6968 5.919V17.3168C16.6968 17.8318 17.0751 18.2519 17.5388 18.2519H25.2544C25.7182 18.2519 26.0965 17.8318 26.0965 17.3168V5.919C26.0965 5.404 25.7182 4.98389 25.2544 4.98389ZM24.4124 16.3816H18.3809V6.85414H24.4124V16.3816Z" fill="white"/>
<path d="M37.4615 21.3691H29.7459C29.2821 21.3691 28.9038 21.7893 28.9038 22.3043V33.702C28.9038 34.217 29.2821 34.6372 29.7459 34.6372H37.4615C37.9252 34.6372 38.3035 34.217 38.3035 33.702V22.3043C38.3035 21.7893 37.9252 21.3691 37.4615 21.3691ZM36.6194 32.7635H30.5879V23.236H36.6194V32.7635Z" fill="white"/>
<path d="M37.4615 4.98389H29.7459C29.2821 4.98389 28.9038 5.404 28.9038 5.919V17.3168C28.9038 17.8318 29.2821 18.2519 29.7459 18.2519H37.4615C37.9252 18.2519 38.3035 17.8318 38.3035 17.3168V5.919C38.3035 5.404 37.9252 4.98389 37.4615 4.98389ZM36.6194 16.3816H30.5879V6.85414H36.6194V16.3816Z" fill="white"/>
<path d="M13.0484 21.3691H5.33276C4.86903 21.3691 4.49072 21.7893 4.49072 22.3043V33.702C4.49072 34.217 4.86903 34.6372 5.33276 34.6372H13.0484C13.5121 34.6372 13.8904 34.217 13.8904 33.702V22.3043C13.8904 21.7893 13.5121 21.3691 13.0484 21.3691ZM12.2064 32.7635H6.1748V23.236H12.2064V32.7635Z" fill="white"/>
<path d="M13.0484 4.98389H5.33276C4.86903 4.98389 4.49072 5.404 4.49072 5.919V17.3168C4.49072 17.8318 4.86903 18.2519 5.33276 18.2519H13.0484C13.5121 18.2519 13.8904 17.8318 13.8904 17.3168V5.919C13.8904 5.404 13.5121 4.98389 13.0484 4.98389ZM12.2064 16.3816H6.1748V6.85414H12.2064V16.3816Z" fill="white"/>
<path d="M49.6675 21.3691H41.9519C41.4882 21.3691 41.1099 21.7893 41.1099 22.3043V33.702C41.1099 34.217 41.4882 34.6372 41.9519 34.6372H49.6675C50.1313 34.6372 50.5096 34.217 50.5096 33.702V22.3043C50.5096 21.7893 50.1313 21.3691 49.6675 21.3691ZM48.8255 32.7635H42.7939V23.236H48.8255V32.7635Z" fill="white"/>
<path d="M49.6675 4.98389H41.9519C41.4882 4.98389 41.1099 5.404 41.1099 5.919V17.3168C41.1099 17.8318 41.4882 18.2519 41.9519 18.2519H49.6675C50.1313 18.2519 50.5096 17.8318 50.5096 17.3168V5.919C50.5096 5.404 50.1313 4.98389 49.6675 4.98389ZM48.8255 16.3816H42.7939V6.85414H48.8255V16.3816Z" fill="white"/>
<path d="M54.1553 50.1414C54.619 50.1414 54.9974 49.7213 54.9974 49.2063C54.9974 48.6913 54.619 48.2712 54.1553 48.2712H48.8133V46.5601C48.8133 46.0451 48.4349 45.625 47.9712 45.625H43.1753C42.9495 45.625 42.7298 45.7267 42.5742 45.9062L39.8864 48.9657L35.3834 50.1855C35.005 50.2871 34.7427 50.6632 34.7427 51.0935V52.8791H21.3982C20.9345 52.8791 20.5562 53.2992 20.5562 53.8142C20.5562 54.3292 20.9345 54.7493 21.3982 54.7493H34.7427V56.5315C34.7427 56.9618 35.0081 57.3379 35.3834 57.4395L39.8864 58.6593L42.5742 61.7188C42.7329 61.8983 42.9495 62 43.1753 62H47.9712C48.4349 62 48.8133 61.5799 48.8133 61.0649V59.3538H54.1553C54.619 59.3538 54.9974 58.9337 54.9974 58.4187C54.9974 57.9037 54.619 57.4836 54.1553 57.4836H48.8133V50.138H54.1553V50.1414ZM47.1292 60.1331H43.5292L40.9207 57.1651C40.8108 57.0397 40.6705 56.9516 40.518 56.911L36.4237 55.7997V51.8287L40.518 50.7174C40.6705 50.6768 40.8108 50.5887 40.9207 50.4633L43.5292 47.4953H47.1292V60.1331Z" fill="white"/>
<path d="M43.0259 52.8077V54.8203C43.0259 55.3353 43.4042 55.7554 43.8679 55.7554C44.3317 55.7554 44.71 55.3353 44.71 54.8203V52.8077C44.71 52.2927 44.3317 51.8726 43.8679 51.8726C43.4042 51.8726 43.0259 52.2927 43.0259 52.8077Z" fill="white"/>
<path d="M15.6383 52.2554C14.8633 52.2554 14.2349 52.9533 14.2349 53.8139C14.2349 54.6745 14.8633 55.3725 15.6383 55.3725C16.4132 55.3725 17.0417 54.6745 17.0417 53.8139C17.0417 52.9533 16.4132 52.2554 15.6383 52.2554Z" fill="white"/>
<path d="M9.18807 52.2554C8.41315 52.2554 7.78467 52.9533 7.78467 53.8139C7.78467 54.6745 8.41315 55.3725 9.18807 55.3725C9.96299 55.3725 10.5915 54.6745 10.5915 53.8139C10.5915 52.9533 9.96299 52.2554 9.18807 52.2554Z" fill="white"/>
<path d="M2.74178 52.2554C1.96686 52.2554 1.33838 52.9533 1.33838 53.8139C1.33838 54.6745 1.96686 55.3725 2.74178 55.3725C3.5167 55.3725 4.14517 54.6745 4.14517 53.8139C4.14517 52.9533 3.5167 52.2554 2.74178 52.2554Z" fill="white"/>
</svg>
