<svg width="65" height="64" viewBox="0 0 65 64" fill="none" xmlns="http://www.w3.org/2000/svg">
<path d="M62.1342 32.1573H64.0906C64.3949 32.1573 64.6795 31.993 64.8464 31.7204C65.0132 31.4479 65.0394 31.1054 64.9183 30.8084L52.8396 1.08011C52.6957 0.727159 52.3718 0.5 52.012 0.5H18.6909C18.3866 0.5 18.102 0.664244 17.9351 0.93682C17.7683 1.2094 17.7421 1.55186 17.8632 1.8489L19.4466 5.74534H14.1695C13.9471 5.74534 13.741 5.8362 13.5872 5.98297C13.5447 6.02141 13.5054 6.06684 13.4727 6.11227C13.4203 6.18216 13.3778 6.25906 13.3451 6.34642L0.0755556 39.0101C-0.124011 39.4993 0.0853679 40.0655 0.54339 40.2786C0.661167 40.3345 0.782227 40.359 0.903276 40.359C1.25334 40.359 1.58375 40.1423 1.73098 39.7789L14.1826 9.13158L26.6343 39.7789C26.7782 40.1319 27.1021 40.359 27.462 40.359H58.8495V61.571H28.8426V50.0809C28.8426 49.5497 28.4402 49.1164 27.9396 49.1164C27.4391 49.1164 27.0367 49.5497 27.0367 50.0809V61.571H6.15089V50.0809C6.15089 49.5497 5.74848 49.1164 5.24793 49.1164C4.74738 49.1164 4.34497 49.5497 4.34497 50.0809V62.5355C4.34497 63.0667 4.74738 63.5 5.24793 63.5H59.7525C60.2498 63.5 60.6555 63.0667 60.6555 62.5355V40.359H64.0972C64.4014 40.359 64.6861 40.1947 64.8529 39.9222C65.0198 39.6496 65.0459 39.3071 64.9249 39.0101L62.1408 32.1573H62.1342ZM51.4198 2.42901L62.7133 30.2318H31.3617L20.0682 2.42901H51.4198ZM28.0476 38.43L15.5534 7.67435H20.2285L29.9386 31.5806C30.0825 31.9336 30.4064 32.1608 30.7663 32.1608H60.1647L62.7133 38.4335H28.0476V38.43Z" fill="white"/>
<path d="M16.3683 31.5803C15.8617 31.3515 15.2832 31.6284 15.0784 32.1983L12.0712 40.5906C11.9491 40.9318 11.985 41.3171 12.1718 41.6221C12.355 41.9271 12.664 42.1077 12.9946 42.1077H17.5431L15.082 48.9789C14.8772 49.5488 15.1251 50.191 15.6353 50.4197C15.7575 50.4719 15.8796 50.5 16.0018 50.5C16.3934 50.5 16.7671 50.2351 16.9216 49.8056L19.9288 41.4134C20.0509 41.0722 20.015 40.6869 19.8282 40.3819C19.6449 40.0769 19.336 39.8963 19.009 39.8963H14.4605L16.9216 33.0211C17.1264 32.4552 16.8784 31.809 16.3683 31.5803Z" fill="white"/>
</svg>
