<svg width="53" height="56" viewBox="0 0 53 56" fill="none" xmlns="http://www.w3.org/2000/svg">
<path d="M30.2829 17.7496H48.3812C50.9274 17.7496 52.997 15.5628 52.997 12.8723C52.997 10.1818 50.9274 7.99498 48.3812 7.99498H4.61531C2.98922 7.99498 1.66483 6.59555 1.66483 4.87732C1.66483 3.1591 2.98922 1.75965 4.61531 1.75965H52.1644C52.6229 1.75965 52.997 1.36436 52.997 0.879815C52.997 0.39527 52.626 0 52.1644 0H4.61531C2.06907 0 -0.000488281 2.18682 -0.000488281 4.87732C-0.000488281 7.56782 2.06907 9.75465 4.61531 9.75465H48.3812C50.0073 9.75465 51.3317 11.1541 51.3317 12.8723C51.3317 14.5905 50.0073 15.99 48.3812 15.99H30.2829C27.7367 15.99 25.6671 18.1768 25.6671 20.8673V23.1179H3.88525C1.74327 23.1179 -0.000488281 24.9604 -0.000488281 27.2238V51.8941C-0.000488281 54.1575 1.74327 56 3.88525 56H49.1143C51.2563 56 53 54.1575 53 51.8941V27.2238C53 24.9604 51.2563 23.1179 49.1143 23.1179H27.3324V20.8673C27.3324 19.1491 28.6568 17.7496 30.2829 17.7496ZM51.3347 27.2238V51.8941C51.3347 53.1884 50.3391 54.2403 49.1143 54.2403H3.88525C2.6604 54.2403 1.66483 53.1884 1.66483 51.8941V27.2238C1.66483 25.9295 2.6604 24.8776 3.88525 24.8776H49.1143C50.3391 24.8776 51.3347 25.9295 51.3347 27.2238Z" fill="white"/>
<path d="M5.15511 49.3789C4.54269 49.3789 4.04492 49.9049 4.04492 50.552C4.04492 51.1991 4.54269 51.7251 5.15511 51.7251C5.76754 51.7251 6.26534 51.1991 6.26534 50.552C6.26534 49.9049 5.76754 49.3789 5.15511 49.3789Z" fill="white"/>
<path d="M5.15511 29.7388C5.76754 29.7388 6.26534 29.2128 6.26534 28.5657C6.26534 27.9186 5.76754 27.3926 5.15511 27.3926C4.54269 27.3926 4.04492 27.9186 4.04492 28.5657C4.04492 29.2128 4.54269 29.7388 5.15511 29.7388Z" fill="white"/>
<path d="M47.8441 49.3789C47.2317 49.3789 46.7339 49.9049 46.7339 50.552C46.7339 51.1991 47.2317 51.7251 47.8441 51.7251C48.4565 51.7251 48.9543 51.1991 48.9543 50.552C48.9543 49.9049 48.4565 49.3789 47.8441 49.3789Z" fill="white"/>
<path d="M47.8441 29.7388C48.4565 29.7388 48.9543 29.2128 48.9543 28.5657C48.9543 27.9186 48.4565 27.3926 47.8441 27.3926C47.2317 27.3926 46.7339 27.9186 46.7339 28.5657C46.7339 29.2128 47.2317 29.7388 47.8441 29.7388Z" fill="white"/>
<path d="M22.6448 34.0871C22.6448 31.0651 22.6448 28.7762 22.6388 28.5467C22.6267 28.0622 22.2496 27.686 21.788 27.6892C21.3295 27.702 20.9644 28.1036 20.9765 28.5914C20.9825 28.8049 20.9825 31.0237 20.9825 34.0903C18.207 34.0903 15.5672 34.0903 13.2623 34.0903V28.569C13.2623 28.0845 12.8882 27.6892 12.4297 27.6892C11.9711 27.6892 11.597 28.0845 11.597 28.569V34.0903C7.96468 34.0903 5.47274 34.0903 5.14692 34.0967C4.68835 34.103 4.31728 34.4983 4.32331 34.9861C4.32935 35.4674 4.70043 35.8563 5.15598 35.8563H5.16504C5.48181 35.8532 7.97072 35.85 11.597 35.85V43.2648C7.96468 43.2648 5.47274 43.2648 5.14692 43.2712C4.68835 43.2775 4.31728 43.6728 4.32331 44.1605C4.32935 44.6419 4.70043 45.0308 5.15598 45.0308H5.16504C5.48181 45.0276 7.97072 45.0244 11.597 45.0244V50.5553C11.597 51.0398 11.9681 51.4351 12.4297 51.4351C12.8912 51.4351 13.2623 51.0398 13.2623 50.5553V45.0244C15.5642 45.0244 18.204 45.0244 20.9765 45.0244C20.9765 47.0455 20.9765 48.9582 20.9735 50.5553C20.9735 51.0398 21.3446 51.4351 21.8061 51.4351C22.2647 51.4351 22.6388 51.043 22.6388 50.5553C22.6388 50.2779 22.6388 48.0082 22.6418 45.0213C25.188 45.0213 27.8067 45.0213 30.353 45.0213C30.353 47.0423 30.353 48.955 30.3499 50.5521C30.3499 51.0366 30.721 51.4319 31.1826 51.4319C31.6412 51.4319 32.0153 51.0398 32.0153 50.5521C32.0153 50.2747 32.0153 48.005 32.0183 45.0213C34.7908 45.0213 37.4305 45.0213 39.7294 45.0213C39.7294 47.0423 39.7294 48.9518 39.7264 50.5489C39.7264 51.0334 40.0975 51.4287 40.559 51.4287C41.0176 51.4287 41.3917 51.0366 41.3917 50.5489C41.3917 50.2715 41.3917 48.0018 41.3947 45.0213C45.196 45.0213 47.7422 45.0213 47.8418 45.0213C48.3004 45.0213 48.6745 44.626 48.6745 44.1414C48.6745 43.6569 48.3034 43.2616 47.8418 43.2616C47.4466 43.2616 44.9727 43.2616 41.3947 43.2616C41.3947 40.8771 41.3947 38.2312 41.3947 35.8468C45.193 35.8468 47.7392 35.8468 47.8388 35.8468C48.2973 35.8468 48.6714 35.4547 48.6714 34.967C48.6714 34.4824 48.3004 34.0871 47.8388 34.0871C47.4436 34.0871 44.9697 34.0871 41.3947 34.0871C41.3947 31.0619 41.3947 28.7731 41.3887 28.5435C41.3766 28.059 41.0025 27.6701 40.5379 27.686C40.0794 27.6988 39.7143 28.1004 39.7264 28.585C39.7324 28.7986 39.7324 31.0173 39.7324 34.0871C37.4305 34.0871 34.7938 34.0871 32.0213 34.0871C32.0213 31.0651 32.0213 28.7731 32.0153 28.5435C32.0032 28.059 31.6351 27.6701 31.1645 27.686C30.7059 27.6988 30.3409 28.1004 30.353 28.585C30.359 28.7986 30.359 31.0173 30.359 34.0871C27.8127 34.0871 25.1941 34.0871 22.6478 34.0871H22.6448ZM13.2623 43.2616V35.8468C15.5672 35.8468 18.207 35.8468 20.9825 35.8468C20.9825 38.142 20.9825 40.74 20.9825 43.2616C18.207 43.2616 15.5702 43.2616 13.2653 43.2616H13.2623ZM22.6448 43.2616C22.6448 40.8771 22.6448 38.2312 22.6448 35.8468C25.1911 35.8468 27.8097 35.8468 30.356 35.8468C30.356 38.142 30.356 40.74 30.356 43.2616C27.8097 43.2616 25.1911 43.2616 22.6448 43.2616ZM39.7324 43.2648C37.4305 43.2648 34.7938 43.2648 32.0213 43.2648C32.0213 40.8803 32.0213 38.2344 32.0213 35.85C34.7938 35.85 37.4336 35.85 39.7324 35.85C39.7324 38.1452 39.7324 40.7432 39.7324 43.2648Z" fill="white"/>
</svg>
