<svg width="56" height="56" viewBox="0 0 56 56" fill="none" xmlns="http://www.w3.org/2000/svg">
<path fill-rule="evenodd" clip-rule="evenodd" d="M27.0322 5.37296e-07H28.9678C34.021 -2.86649e-05 38.0048 -5.1563e-05 41.1705 0.342924C44.4092 0.69382 47.0685 1.42613 49.3477 3.08207C50.7177 4.07745 51.9225 5.28227 52.9179 6.65229C54.5739 8.9315 55.3062 11.5908 55.6571 14.8295C56.0001 17.9952 56 21.9789 56 27.0321V28.9679C56 34.0211 56.0001 38.0048 55.6571 41.1705C55.3062 44.4092 54.5739 47.0685 52.9179 49.3477C51.9225 50.7177 50.7177 51.9225 49.3477 52.9179C47.0685 54.5739 44.4092 55.3062 41.1705 55.6571C38.0048 56.0001 34.0211 56 28.9679 56H27.0321C21.9789 56 17.9952 56.0001 14.8295 55.6571C11.5908 55.3062 8.9315 54.5739 6.65229 52.9179C5.28227 51.9225 4.07745 50.7177 3.08207 49.3477C1.42613 47.0685 0.693821 44.4092 0.342924 41.1705C-5.1563e-05 38.0048 -2.86649e-05 34.021 5.37312e-07 28.9678V27.0322C-2.86649e-05 21.979 -5.1563e-05 17.9952 0.342924 14.8295C0.69382 11.5908 1.42613 8.9315 3.08207 6.65229C4.07745 5.28227 5.28227 4.07745 6.65229 3.08207C8.9315 1.42613 11.5908 0.693821 14.8295 0.342924C17.9952 -5.1563e-05 21.979 -2.86649e-05 27.0322 5.37296e-07ZM15.3347 5.0053C12.4949 5.31296 10.7553 5.89777 9.4088 6.87608C8.43691 7.58221 7.58221 8.43691 6.87608 9.4088C5.89777 10.7553 5.31296 12.4949 5.0053 15.3347C4.69287 18.2183 4.68966 21.9481 4.68966 27.1724V28.8276C4.68966 34.0519 4.69287 37.7817 5.0053 40.6653C5.31296 43.5051 5.89777 45.2447 6.87608 46.5912C7.58221 47.5631 8.43691 48.4178 9.4088 49.1239C10.7553 50.1022 12.4949 50.687 15.3347 50.9947C18.2183 51.3071 21.9481 51.3103 27.1724 51.3103H28.8276C34.0519 51.3103 37.7817 51.3071 40.6653 50.9947C43.5051 50.687 45.2447 50.1022 46.5912 49.1239C47.5631 48.4178 48.4178 47.5631 49.1239 46.5912C50.1022 45.2447 50.687 43.5051 50.9947 40.6653C51.3071 37.7817 51.3103 34.0519 51.3103 28.8276V27.1724C51.3103 21.9481 51.3071 18.2183 50.9947 15.3347C50.687 12.4949 50.1022 10.7553 49.1239 9.4088C48.4178 8.43691 47.5631 7.58221 46.5912 6.87608C45.2447 5.89777 43.5051 5.31296 40.6653 5.0053C37.7817 4.69287 34.0519 4.68966 28.8276 4.68966H27.1724C21.9481 4.68966 18.2183 4.69287 15.3347 5.0053Z" fill="white"/>
<path fill-rule="evenodd" clip-rule="evenodd" d="M28 18.4828C22.7438 18.4828 18.4828 22.7438 18.4828 28C18.4828 33.2562 22.7438 37.5172 28 37.5172C33.2562 37.5172 37.5172 33.2562 37.5172 28C37.5172 22.7438 33.2562 18.4828 28 18.4828ZM13.7931 28C13.7931 20.1537 20.1537 13.7931 28 13.7931C35.8463 13.7931 42.2069 20.1537 42.2069 28C42.2069 35.8463 35.8463 42.2069 28 42.2069C20.1537 42.2069 13.7931 35.8463 13.7931 28Z" fill="white"/>
<path d="M39.8621 13C39.8621 11.2289 41.2978 9.7931 43.069 9.7931C44.8401 9.7931 46.2759 11.2289 46.2759 13C46.2759 14.7711 44.8401 16.2069 43.069 16.2069C41.2978 16.2069 39.8621 14.7711 39.8621 13Z" fill="white"/>
</svg>
