<svg width="69" height="82" viewBox="0 0 69 82" fill="none" xmlns="http://www.w3.org/2000/svg">
<path d="M65.8319 37.0769L7.99748 1.21794C7.26678 0.758353 6.42735 0.507085 5.56762 0.490612C4.70789 0.474138 3.85969 0.693068 3.11239 1.12434C2.37051 1.5377 1.75251 2.14653 1.32364 2.88651C0.894779 3.6265 0.670972 4.47017 0.67586 5.32844V77.0464C0.670972 77.9047 0.894779 78.7484 1.32364 79.4883C1.75251 80.2283 2.37051 80.8372 3.11239 81.2505C3.85969 81.6818 4.70789 81.9007 5.56762 81.8842C6.42735 81.8678 7.26678 81.6165 7.99748 81.1569L65.8319 45.2979C66.528 44.8689 67.1034 44.2653 67.5027 43.5454C67.902 42.8254 68.1118 42.0134 68.1118 41.1874C68.1118 40.3615 67.902 39.5494 67.5027 38.8295C67.1034 38.1096 66.528 37.506 65.8319 37.0769ZM64.154 42.5183L6.31961 78.3813C6.07474 78.5339 5.79396 78.617 5.50659 78.622C5.21922 78.627 4.93579 78.5537 4.68589 78.4098C4.44216 78.2784 4.23851 78.0819 4.09701 77.8416C3.9555 77.6013 3.88152 77.3263 3.88308 77.0464V5.32844C3.88152 5.04856 3.9555 4.77358 4.09701 4.53326C4.23851 4.29295 4.44216 4.09646 4.68589 3.96506C4.93579 3.82112 5.21922 3.74783 5.50659 3.75284C5.79396 3.75785 6.07474 3.84098 6.31961 3.99354L64.154 39.8566C64.382 39.9934 64.5709 40.1881 64.7021 40.4215C64.8333 40.6548 64.9023 40.9188 64.9023 41.1874C64.9023 41.456 64.8333 41.72 64.7021 41.9534C64.5709 42.1867 64.382 42.3814 64.154 42.5183Z" fill="#E84E1C"/>
</svg>
