<svg width="30" height="29" viewBox="0 0 30 29" fill="none" xmlns="http://www.w3.org/2000/svg">
<g filter="url(#filter0_b_262_4933)">
<path fill-rule="evenodd" clip-rule="evenodd" d="M12.0423 29C10.8927 29 9.97976 28.0332 10.0455 26.8856L10.2811 22.7746L6.86862 25.0327C5.90525 25.6702 4.6037 25.3613 4.02951 24.3589L1.04824 19.1544C0.47852 18.1598 0.859545 16.8909 1.88291 16.3746L5.54193 14.5288L1.8851 12.6842C0.865646 12.1699 0.482908 10.9079 1.04495 9.91403L4.022 4.64941C4.59278 3.64004 5.89955 3.32607 6.86659 3.96596L10.2811 6.2254L10.0455 2.11444C9.97976 0.966767 10.8927 0 12.0423 0H17.9692C19.1161 0 20.0281 0.962495 19.9663 2.10773L19.7436 6.23651L23.1767 3.96479C24.147 3.32279 25.4583 3.6412 26.0261 4.65665L28.9705 9.92282C29.5253 10.9151 29.1426 12.1696 28.1284 12.6832L24.4834 14.5288L28.1305 16.3756C29.1486 16.8911 29.5297 18.1526 28.9673 19.1456L26.0186 24.3516C25.4474 25.3601 24.1413 25.6735 23.1747 25.0339L19.7436 22.7635L19.9663 26.8923C20.0281 28.0375 19.1161 29 17.9692 29H12.0423ZM17.0788 18.1048L24.1391 22.7767L26.6546 18.3355L19.1369 14.5288L26.6546 10.7222L24.1391 6.22335L17.0788 10.8952L17.5362 2.41667H12.4768L12.9627 10.8952L5.90241 6.22335L3.35841 10.7222L10.9046 14.5288L3.35841 18.3355L5.90241 22.7767L12.9627 18.1048L12.4768 26.5833H17.5362L17.0788 18.1048Z" fill="#E84E1C"/>
</g>
<defs>
<filter id="filter0_b_262_4933" x="-3.2168" y="-4" width="36.4443" height="37" filterUnits="userSpaceOnUse" color-interpolation-filters="sRGB">
<feFlood flood-opacity="0" result="BackgroundImageFix"/>
<feGaussianBlur in="BackgroundImageFix" stdDeviation="2"/>
<feComposite in2="SourceAlpha" operator="in" result="effect1_backgroundBlur_262_4933"/>
<feBlend mode="normal" in="SourceGraphic" in2="effect1_backgroundBlur_262_4933" result="shape"/>
</filter>
</defs>
</svg>
