<svg width="56" height="56" viewBox="0 0 56 56" fill="none" xmlns="http://www.w3.org/2000/svg">
<path d="M19.9576 24.7587C17.4667 25.7149 14.9073 26.6974 12.5669 27.8308C11.3448 28.6175 12.9694 29.174 14.4933 29.696C14.7354 29.779 14.9749 29.861 15.2001 29.943C15.3876 29.9937 15.5783 30.0471 15.7715 30.1012C17.4662 30.5759 19.3559 31.1052 21.0011 30.309C23.7038 28.944 26.2544 27.3658 28.803 25.7889C29.638 25.2723 30.4727 24.7558 31.3126 24.2469C31.3519 24.2248 31.3964 24.1995 31.4449 24.1718C32.1604 23.7641 33.7694 22.8471 33.1743 24.1106C31.7668 25.4639 30.2592 26.6618 28.7435 27.8663C27.722 28.678 26.6967 29.4927 25.6958 30.3599C24.8241 30.9826 23.919 32.2349 24.895 33.1069C27.1432 34.4907 29.4265 35.8409 31.7085 37.1903C32.4511 37.6294 33.1936 38.0684 33.9347 38.5085C35.1906 39.3901 37.1534 38.677 37.4296 37.2994C37.5524 36.6657 37.6756 36.0321 37.7989 35.3984C38.4802 31.8961 39.1618 28.3926 39.7639 24.8789C39.8457 24.3278 39.9384 23.7767 40.0313 23.2252C40.2562 21.8888 40.4814 20.5508 40.5517 19.2072C40.3704 17.8663 38.5213 18.1611 37.4922 18.4626C32.2028 20.2322 26.9662 22.1329 21.7504 24.0672C21.1595 24.2973 20.5606 24.5273 19.9576 24.7587Z" fill="white"/>
<path fill-rule="evenodd" clip-rule="evenodd" d="M27.0322 5.37296e-07C21.979 -2.86649e-05 17.9952 -5.1563e-05 14.8295 0.342924C11.5908 0.693821 8.9315 1.42613 6.65229 3.08207C5.28227 4.07745 4.07745 5.28227 3.08207 6.65229C1.42613 8.9315 0.693821 11.5908 0.342924 14.8295C-5.13196e-05 17.9952 -2.8409e-05 21.979 5.30114e-07 27.0322V28.9678C-2.8409e-05 34.021 -5.13196e-05 38.0048 0.342924 41.1705C0.693821 44.4092 1.42613 47.0685 3.08207 49.3477C4.07745 50.7177 5.28227 51.9225 6.65229 52.9179C8.9315 54.5739 11.5908 55.3062 14.8295 55.6571C17.9951 56.0001 21.9789 56 27.032 56H28.9679C34.021 56 38.0049 56.0001 41.1705 55.6571C44.4092 55.3062 47.0685 54.5739 49.3477 52.9179C50.7177 51.9225 51.9225 50.7177 52.9179 49.3477C54.5739 47.0685 55.3062 44.4092 55.6571 41.1705C56.0001 38.0049 56 34.0211 56 28.9679V27.0321C56 21.979 56.0001 17.9951 55.6571 14.8295C55.3062 11.5908 54.5739 8.9315 52.9179 6.65229C51.9225 5.28227 50.7177 4.07745 49.3477 3.08207C47.0685 1.42613 44.4092 0.69382 41.1705 0.342924C38.0048 -5.1563e-05 34.021 -2.86649e-05 28.9678 5.37296e-07H27.0322ZM9.4088 6.87608C10.7553 5.89777 12.4949 5.31296 15.3347 5.00529C18.2183 4.69287 21.9481 4.68966 27.1724 4.68966H28.8276C34.0519 4.68966 37.7817 4.69287 40.6653 5.00529C43.5051 5.31296 45.2447 5.89777 46.5912 6.87608C47.5631 7.58221 48.4178 8.43691 49.1239 9.4088C50.1022 10.7553 50.687 12.4949 50.9947 15.3347C51.3071 18.2183 51.3103 21.9481 51.3103 27.1724V28.8276C51.3103 34.0519 51.3071 37.7817 50.9947 40.6653C50.687 43.5051 50.1022 45.2447 49.1239 46.5912C48.4178 47.5631 47.5631 48.4178 46.5912 49.1239C45.2447 50.1022 43.5051 50.687 40.6653 50.9947C37.7817 51.3071 34.0519 51.3103 28.8276 51.3103H27.1724C21.9481 51.3103 18.2183 51.3071 15.3347 50.9947C12.4949 50.687 10.7553 50.1022 9.4088 49.1239C8.43691 48.4178 7.58221 47.5631 6.87608 46.5912C5.89777 45.2447 5.31296 43.5051 5.0053 40.6653C4.69287 37.7817 4.68966 34.0519 4.68966 28.8276V27.1724C4.68966 21.9481 4.69287 18.2183 5.0053 15.3347C5.31296 12.4949 5.89777 10.7553 6.87608 9.4088C7.58221 8.43691 8.43691 7.58221 9.4088 6.87608Z" fill="white"/>
</svg>
